<svg xmlns="http://www.w3.org/2000/svg" enable-background="new 0 0 512 512" viewBox="0 0 512 512" id="soap-and-sanitizer"><path fill="#c5e6e9" d="M230.2,168H350c44.7,0,80.9,36.2,80.9,80.9V512H149.4V248.9
			C149.4,204.2,185.6,168,230.2,168z"></path><path fill="#edf2fa" d="M234.2,168H350c44.7,0,80.9,36.2,80.9,80.9V454H282.7c-26.8,0-48.5-21.7-48.5-48.5V168z"></path><rect width="281.5" height="117.1" x="149.4" y="280.8" fill="#db332a"></rect><rect width="196.7" height="117.1" x="234.2" y="280.8" fill="#e67368"></rect><rect width="10" height="32" x="402" fill="#4763b6"></rect><rect width="32" height="10" x="391" y="11" fill="#4763b6"></rect><rect width="10" height="32" x="87" y="113" fill="#4763b6"></rect><rect width="32" height="10" x="76" y="124" fill="#4763b6"></rect><rect width="112.5" height="38.6" x="234.2" y="129.5" fill="#c4c0ab"></rect><rect width="73.5" height="38.6" x="273.2" y="129.5" fill="#eceae0"></rect><path fill="#e67368" d="M346.8,44.3H81.1L131,77.4h182.7C331.9,77.4,346.8,62.6,346.8,44.3L346.8,44.3z"></path><rect width="34.5" height="52" x="273.2" y="77.4" fill="#737e6d"></rect><path fill="#c4c0ab" d="M307.7,89h-10.4c-7.1,0-12.8,5.7-12.8,12.8v27.6h23.3V89z"></path><path fill="#57a362" d="M209.5,512H81.1V292.2c0-10.7,8.7-19.4,19.4-19.4H190c10.7,0,19.4,8.7,19.4,19.4V512z"></path><path fill="#81bc8c" d="M209.5,454h-24.1c-42.9,0-77.7-34.8-77.7-77.7v-84c0-10.7,8.7-19.4,19.4-19.4h63
			c10.7,0,19.4,8.7,19.4,19.4V454z"></path><rect width="75.3" height="41" x="107.6" y="231.8" fill="#c4c0ab"></rect><path fill="#eceae0" d="M182.9,231.8h-60.9v6.9c0,11.9,9.7,21.6,21.6,21.6h39.3V231.8z"></path><rect width="46.4" height="70.3" x="122.1" y="161.5" fill="#c4c0ab"></rect><path fill="#eceae0" d="M168.5,161.5h-33.4v19.3c0,15.5,12.5,28,28,28h5.4V161.5z"></path><rect width="23" height="10" x="122" y="185" fill="#737e6d"></rect><path fill="#d2dcab" d="M189.9,273h-39.8v4c0,12.2,9.8,22,22,22h0c8.3,0,15,6.7,15,15v27c0,12.2,9.8,22,22,22h0
			v-70.8C209.1,281.6,200.5,273,189.9,273z"></path><path fill="#db332a" d="M106,61L131,77h142.2v0c0-8.8-7.2-16-16-16H106z"></path><rect width="10" height="32" x="360.1" y="219" fill="#4763b6" transform="rotate(44.996 365.107 234.977)"></rect><rect width="32" height="10" x="349.1" y="230" fill="#4763b6" transform="rotate(45.001 365.133 234.987)"></rect></svg>